<mxfile host="Electron" modified="2023-12-29T21:26:33.623Z" agent="Mozilla/5.0 (Windows NT 10.0; Win64; x64) AppleWebKit/537.36 (KHTML, like Gecko) draw.io/22.0.3 Chrome/114.0.5735.289 Electron/25.8.4 Safari/537.36" etag="GU7eXPT6epsFdoCTbJB_" version="22.0.3" type="device">
  <diagram name="Page-1" id="68JQWc8QRRQl-hogwef1">
    <mxGraphModel dx="653" dy="814" grid="1" gridSize="10" guides="1" tooltips="1" connect="1" arrows="1" fold="1" page="1" pageScale="1" pageWidth="1100" pageHeight="850" math="0" shadow="0">
      <root>
        <mxCell id="0" />
        <mxCell id="1" parent="0" />
        <mxCell id="eX6Ozd6qtSW026ZG_TE9-1" value="人物" style="ellipse;whiteSpace=wrap;html=1;fillColor=#33FF33;" vertex="1" parent="1">
          <mxGeometry x="350" y="150" width="70" height="80" as="geometry" />
        </mxCell>
        <mxCell id="eX6Ozd6qtSW026ZG_TE9-2" value="人物" style="ellipse;whiteSpace=wrap;html=1;fillColor=#33FF33;" vertex="1" parent="1">
          <mxGeometry x="580" y="150" width="70" height="80" as="geometry" />
        </mxCell>
        <mxCell id="eX6Ozd6qtSW026ZG_TE9-3" value="辈分" style="endArrow=classic;html=1;rounded=0;exitX=1;exitY=0;exitDx=0;exitDy=0;entryX=0;entryY=0;entryDx=0;entryDy=0;" edge="1" parent="1" source="eX6Ozd6qtSW026ZG_TE9-1" target="eX6Ozd6qtSW026ZG_TE9-2">
          <mxGeometry width="50" height="50" relative="1" as="geometry">
            <mxPoint x="510" y="470" as="sourcePoint" />
            <mxPoint x="560" y="420" as="targetPoint" />
          </mxGeometry>
        </mxCell>
        <mxCell id="eX6Ozd6qtSW026ZG_TE9-4" value="其他关系" style="endArrow=classic;html=1;rounded=0;exitX=1;exitY=1;exitDx=0;exitDy=0;entryX=0;entryY=1;entryDx=0;entryDy=0;" edge="1" parent="1" source="eX6Ozd6qtSW026ZG_TE9-1" target="eX6Ozd6qtSW026ZG_TE9-2">
          <mxGeometry width="50" height="50" relative="1" as="geometry">
            <mxPoint x="510" y="470" as="sourcePoint" />
            <mxPoint x="560" y="420" as="targetPoint" />
          </mxGeometry>
        </mxCell>
        <mxCell id="eX6Ozd6qtSW026ZG_TE9-5" value="性别" style="ellipse;whiteSpace=wrap;html=1;fillColor=#99FFFF;" vertex="1" parent="1">
          <mxGeometry x="120" y="90" width="70" height="80" as="geometry" />
        </mxCell>
        <mxCell id="eX6Ozd6qtSW026ZG_TE9-6" value="籍贯" style="ellipse;whiteSpace=wrap;html=1;fillColor=#99FFFF;" vertex="1" parent="1">
          <mxGeometry x="130" y="220" width="70" height="80" as="geometry" />
        </mxCell>
        <mxCell id="eX6Ozd6qtSW026ZG_TE9-7" value="职业" style="ellipse;whiteSpace=wrap;html=1;fillColor=#33FF33;" vertex="1" parent="1">
          <mxGeometry x="180" y="330" width="70" height="80" as="geometry" />
        </mxCell>
        <mxCell id="eX6Ozd6qtSW026ZG_TE9-8" value="爱好" style="ellipse;whiteSpace=wrap;html=1;fillColor=#33FF33;" vertex="1" parent="1">
          <mxGeometry x="310" y="370" width="70" height="80" as="geometry" />
        </mxCell>
        <mxCell id="eX6Ozd6qtSW026ZG_TE9-9" value="object property" style="endArrow=classic;html=1;rounded=0;exitX=0.5;exitY=1;exitDx=0;exitDy=0;entryX=0.5;entryY=0;entryDx=0;entryDy=0;" edge="1" parent="1" source="eX6Ozd6qtSW026ZG_TE9-1" target="eX6Ozd6qtSW026ZG_TE9-8">
          <mxGeometry width="50" height="50" relative="1" as="geometry">
            <mxPoint x="340" y="450" as="sourcePoint" />
            <mxPoint x="390" y="400" as="targetPoint" />
          </mxGeometry>
        </mxCell>
        <mxCell id="eX6Ozd6qtSW026ZG_TE9-10" value="data enumerated" style="endArrow=classic;html=1;rounded=0;exitX=0;exitY=0;exitDx=0;exitDy=0;entryX=1;entryY=0.5;entryDx=0;entryDy=0;" edge="1" parent="1" source="eX6Ozd6qtSW026ZG_TE9-1" target="eX6Ozd6qtSW026ZG_TE9-5">
          <mxGeometry width="50" height="50" relative="1" as="geometry">
            <mxPoint x="340" y="450" as="sourcePoint" />
            <mxPoint x="390" y="400" as="targetPoint" />
          </mxGeometry>
        </mxCell>
        <mxCell id="eX6Ozd6qtSW026ZG_TE9-11" value="data enumerated" style="endArrow=classic;html=1;rounded=0;exitX=0;exitY=0.5;exitDx=0;exitDy=0;entryX=1;entryY=0;entryDx=0;entryDy=0;" edge="1" parent="1" source="eX6Ozd6qtSW026ZG_TE9-1" target="eX6Ozd6qtSW026ZG_TE9-6">
          <mxGeometry width="50" height="50" relative="1" as="geometry">
            <mxPoint x="340" y="450" as="sourcePoint" />
            <mxPoint x="390" y="400" as="targetPoint" />
          </mxGeometry>
        </mxCell>
        <mxCell id="eX6Ozd6qtSW026ZG_TE9-12" value="身高" style="ellipse;whiteSpace=wrap;html=1;fillColor=#99FFFF;" vertex="1" parent="1">
          <mxGeometry x="290" y="20" width="70" height="80" as="geometry" />
        </mxCell>
        <mxCell id="eX6Ozd6qtSW026ZG_TE9-13" value="data, float" style="endArrow=classic;html=1;rounded=0;entryX=1;entryY=1;entryDx=0;entryDy=0;exitX=0.5;exitY=0;exitDx=0;exitDy=0;" edge="1" parent="1" source="eX6Ozd6qtSW026ZG_TE9-1" target="eX6Ozd6qtSW026ZG_TE9-12">
          <mxGeometry width="50" height="50" relative="1" as="geometry">
            <mxPoint x="340" y="450" as="sourcePoint" />
            <mxPoint x="390" y="400" as="targetPoint" />
          </mxGeometry>
        </mxCell>
        <mxCell id="eX6Ozd6qtSW026ZG_TE9-14" value="object property" style="endArrow=classic;html=1;rounded=0;exitX=0.143;exitY=0.763;exitDx=0;exitDy=0;exitPerimeter=0;entryX=1;entryY=0;entryDx=0;entryDy=0;" edge="1" parent="1" source="eX6Ozd6qtSW026ZG_TE9-1" target="eX6Ozd6qtSW026ZG_TE9-7">
          <mxGeometry width="50" height="50" relative="1" as="geometry">
            <mxPoint x="340" y="450" as="sourcePoint" />
            <mxPoint x="390" y="400" as="targetPoint" />
          </mxGeometry>
        </mxCell>
      </root>
    </mxGraphModel>
  </diagram>
</mxfile>
